<svg width="178" height="48" viewBox="0 0 178 48" fill="none" xmlns="http://www.w3.org/2000/svg">
<path fill-rule="evenodd" clip-rule="evenodd" d="M66.4143 6.26175C73.9911 4.0666 81.8452 2.9895 89.7307 3.06419C97.6294 2.96791 105.499 4.04457 113.085 6.2593C113.085 6.2593 106.475 0.799207 89.696 0.71875H89.4103C74.4313 0.717531 66.4143 6.26175 66.4143 6.26175ZM88.8763 9.83232C89.0881 9.83106 89.2981 9.83106 89.5082 9.83106C116.022 9.83106 135.116 16.882 147.067 25.0362C147.067 25.0362 127.83 13.0677 88.9903 13.2164C59.8359 13.331 43.5811 18.952 30.7604 25.1106C30.7604 25.1106 50.0624 9.9969 88.8763 9.83232ZM87.8537 21.7778C88.4469 21.7716 89.0472 21.7688 89.655 21.7692C113.322 21.7692 147.615 25.9285 178 41.7493C178.003 41.7493 163.526 34.9666 137.903 30.3123C103.976 24.1452 40.6189 23.9233 0 41.6141C0 41.6141 31.9577 22.2825 87.8537 21.7778ZM123.211 38.9662H133.295C134.007 38.916 134.72 39.0516 135.364 39.3601C135.566 39.5088 135.728 39.7068 135.833 39.9354C135.938 40.164 135.983 40.4156 135.965 40.6668V42.6148C135.984 42.863 135.939 43.1119 135.834 43.3371C135.728 43.5623 135.567 43.7561 135.364 43.8997C134.723 44.2183 134.009 44.3617 133.295 44.3154H125.899V47.6971H123.211V38.9662ZM125.899 40.4681V42.7855H132.095C132.425 42.8087 132.756 42.7601 133.065 42.6429C133.155 42.5843 133.226 42.5021 133.273 42.4055C133.319 42.3087 133.338 42.2012 133.328 42.0943V41.1849C133.339 41.0793 133.32 40.9728 133.274 40.8775C133.228 40.7822 133.155 40.702 133.065 40.6461C132.765 40.4963 132.428 40.4346 132.095 40.4681H125.899ZM106.573 38.9662H115.261C116.052 38.8889 116.848 39.0434 117.554 39.4112C117.789 39.6055 117.971 39.8566 118.084 40.141C118.196 40.4254 118.236 40.7338 118.196 41.0374V45.6442C118.235 45.9488 118.196 46.2581 118.083 46.5435C117.97 46.829 117.789 47.0814 117.554 47.2777C116.845 47.6323 116.05 47.7777 115.261 47.6971H106.573C105.77 47.775 104.96 47.63 104.233 47.2777C104.013 47.0721 103.843 46.8168 103.74 46.533C103.636 46.249 103.6 45.9445 103.637 45.6442V41.0374C103.6 40.7382 103.635 40.4345 103.739 40.1516C103.843 39.8688 104.013 39.6149 104.233 39.4112C104.957 39.0458 105.768 38.8917 106.573 38.9662ZM106.361 40.5181V46.0696H115.432V40.5181H106.361ZM85.9031 38.9662H98.2284L97.4648 40.4681H88.6021V42.3637H95.9607C96.6727 42.3231 97.3838 42.4685 98.0237 42.7855C98.2266 42.9293 98.3877 43.1233 98.4936 43.3488C98.5986 43.5743 98.644 43.8234 98.6245 44.0716V46.016C98.644 46.2678 98.5995 46.5205 98.4936 46.7499C98.3886 46.9793 98.2266 47.1778 98.0237 47.3265C97.374 47.6083 96.6673 47.7351 95.9607 47.6971H85.9031V38.9662ZM88.6021 43.8717V46.194H94.7271C95.0662 46.2164 95.4062 46.1649 95.7239 46.0428C95.8103 45.9848 95.8788 45.903 95.9206 45.807C95.9634 45.7111 95.9767 45.6051 95.9607 45.5015V44.5653C95.9705 44.4618 95.9545 44.3573 95.9126 44.2619C95.8717 44.1665 95.8067 44.0833 95.7239 44.0204C95.4053 43.9019 95.0662 43.8512 94.7271 43.8717H88.6021ZM78.0668 47.7178V38.9662H80.892V47.7178H78.0668ZM63.5369 38.9662H66.2335V42.3637H73.627C74.3419 42.323 75.0551 42.4683 75.6977 42.7855C75.8996 42.9299 76.0609 43.1241 76.1664 43.3494C76.2718 43.5746 76.3176 43.8234 76.2994 44.0716V46.016C76.3183 46.2678 76.273 46.5204 76.1677 46.7497C76.0624 46.979 75.9007 47.1776 75.6977 47.3265C75.0458 47.6108 74.3366 47.7377 73.627 47.6971H63.5369V38.9662ZM66.2335 43.8717V46.194H72.4019C72.743 46.2219 73.0859 46.1702 73.4038 46.0428C73.5664 45.9477 73.627 45.7747 73.627 45.5015V44.5653C73.6379 44.463 73.6232 44.3596 73.5842 44.2645C73.5452 44.1693 73.4832 44.0854 73.4038 44.0204C73.0841 43.9 72.7426 43.8493 72.4019 43.8717H66.2335ZM45.6724 38.9662H55.7977C56.5002 38.9235 57.2015 39.0691 57.8295 39.388C58.033 39.5292 58.1958 39.7217 58.3016 39.9462C58.4075 40.1707 58.4525 40.4193 58.4324 40.6668V41.7274C58.4352 41.9241 58.3906 42.1186 58.3026 42.2943C58.2145 42.4701 58.0855 42.6218 57.9266 42.7368C57.4717 43.0371 56.9411 43.2008 56.397 43.2085C56.9704 43.2337 57.5249 43.4223 57.9958 43.7522C58.1702 43.8822 58.3099 44.0535 58.4024 44.2509C58.4949 44.4483 58.5373 44.6656 58.5259 44.8835V46.0025C58.5299 46.2781 58.4496 46.5483 58.2957 46.7763C58.1419 47.0044 57.922 47.1794 57.6658 47.2777C56.8407 47.6102 55.9522 47.7535 55.065 47.6971H45.6724V38.9662ZM48.369 40.395V42.4649H54.6283C54.965 42.4822 55.302 42.4401 55.6242 42.3405C55.7112 42.2927 55.7827 42.221 55.8307 42.1338C55.8786 42.0466 55.9008 41.9475 55.8948 41.8481V41.0106C55.8959 40.912 55.8716 40.8148 55.8242 40.7284C55.7767 40.6422 55.7079 40.5697 55.6242 40.5181C55.301 40.4233 54.9647 40.3817 54.6283 40.395H48.369ZM48.369 43.9241V46.144H54.6283C54.9916 46.1687 55.3558 46.1104 55.6934 45.9733C55.7854 45.9001 55.8583 45.8054 55.9059 45.6975C55.9534 45.5897 55.9741 45.4718 55.9663 45.354V44.6897C55.9728 44.5723 55.9515 44.4551 55.904 44.3476C55.8566 44.2402 55.7844 44.1456 55.6934 44.0716C55.3535 43.9445 54.9898 43.8942 54.6283 43.9241H48.369Z" fill="white"/>
</svg>
