<svg width="178" height="47" viewBox="0 0 178 47" fill="none" xmlns="http://www.w3.org/2000/svg">
<path fill-rule="evenodd" clip-rule="evenodd" d="M66.4143 5.543C73.9911 3.34785 81.8452 2.27075 89.7307 2.34544C97.6294 2.24916 105.499 3.32582 113.085 5.54056C113.085 5.54056 106.475 0.0804571 89.696 2.01001e-07H89.4103C74.4313 -0.00121885 66.4143 5.543 66.4143 5.543ZM88.8763 9.11357C89.0881 9.11231 89.2981 9.11231 89.5082 9.11231C116.022 9.11231 135.116 16.1633 147.067 24.3175C147.067 24.3175 127.83 12.3489 88.9903 12.4976C59.8359 12.6122 43.5811 18.2332 30.7604 24.3919C30.7604 24.3919 50.0624 9.27815 88.8763 9.11357ZM87.8537 21.059C88.4469 21.0529 89.0472 21.0501 89.655 21.0504C113.322 21.0504 147.615 25.2098 178 41.0306C178.003 41.0306 163.526 34.2478 137.903 29.5935C103.976 23.4264 40.6189 23.2045 0 40.8953C0 40.8953 31.9577 21.5637 87.8537 21.059ZM123.211 38.2475H133.295C134.007 38.1972 134.72 38.3329 135.364 38.6413C135.566 38.7901 135.728 38.9881 135.833 39.2166C135.938 39.4452 135.983 39.6969 135.965 39.9481V41.8961C135.984 42.1443 135.939 42.3932 135.834 42.6184C135.728 42.8436 135.567 43.0374 135.364 43.181C134.723 43.4996 134.009 43.643 133.295 43.5967H125.899V46.9783H123.211V38.2475ZM125.899 39.7494V42.0667H132.095C132.425 42.09 132.756 42.0414 133.065 41.9242C133.155 41.8655 133.226 41.7833 133.273 41.6867C133.319 41.59 133.338 41.4824 133.328 41.3756V40.4662C133.339 40.3606 133.32 40.254 133.274 40.1587C133.228 40.0634 133.155 39.9832 133.065 39.9274C132.765 39.7775 132.428 39.7158 132.095 39.7494H125.899ZM106.573 38.2475H115.261C116.052 38.1702 116.848 38.3246 117.554 38.6924C117.789 38.8867 117.971 39.1378 118.084 39.4222C118.196 39.7066 118.236 40.0151 118.196 40.3187V44.9255C118.235 45.2301 118.196 45.5393 118.083 45.8248C117.97 46.1102 117.789 46.3627 117.554 46.5589C116.845 46.9136 116.05 47.059 115.261 46.9783H106.573C105.77 47.0563 104.96 46.9113 104.233 46.5589C104.013 46.3533 103.843 46.0981 103.74 45.8142C103.636 45.5303 103.6 45.2258 103.637 44.9255V40.3187C103.6 40.0194 103.635 39.7157 103.739 39.4329C103.843 39.15 104.013 38.8962 104.233 38.6924C104.957 38.3271 105.768 38.1729 106.573 38.2475ZM106.361 39.7993V45.3508H115.432V39.7993H106.361ZM85.9031 38.2475H98.2284L97.4648 39.7494H88.6021V41.645H95.9607C96.6727 41.6044 97.3838 41.7497 98.0237 42.0667C98.2266 42.2105 98.3877 42.4046 98.4936 42.6301C98.5986 42.8555 98.644 43.1046 98.6245 43.3529V45.2973C98.644 45.5491 98.5995 45.8017 98.4936 46.0311C98.3886 46.2605 98.2266 46.4591 98.0237 46.6078C97.374 46.8895 96.6674 47.0163 95.9607 46.9783H85.9031V38.2475ZM88.6021 43.153V45.4752H94.7271C95.0662 45.4976 95.4062 45.4462 95.7239 45.324C95.8103 45.266 95.8788 45.1842 95.9206 45.0883C95.9634 44.9923 95.9767 44.8863 95.9607 44.7828V43.8466C95.9705 43.743 95.9545 43.6385 95.9126 43.5431C95.8717 43.4477 95.8067 43.3646 95.7239 43.3017C95.4053 43.1831 95.0662 43.1324 94.7271 43.153H88.6021ZM78.0668 46.9991V38.2475H80.892V46.9991H78.0668ZM63.5369 38.2475H66.2335V41.645H73.627C74.3419 41.6043 75.0551 41.7495 75.6977 42.0667C75.8996 42.2111 76.0609 42.4053 76.1664 42.6306C76.2718 42.8558 76.3176 43.1046 76.2994 43.3529V45.2973C76.3183 45.5491 76.273 45.8016 76.1677 46.0309C76.0624 46.2602 75.9007 46.4588 75.6977 46.6078C75.0458 46.8921 74.3366 47.0189 73.627 46.9783H63.5369V38.2475ZM66.2335 43.153V45.4752H72.4019C72.743 45.5032 73.0859 45.4514 73.4038 45.324C73.5664 45.229 73.627 45.0559 73.627 44.7828V43.8466C73.6379 43.7443 73.6232 43.6409 73.5842 43.5457C73.5452 43.4505 73.4832 43.3667 73.4038 43.3017C73.0841 43.1812 72.7426 43.1305 72.4019 43.153H66.2335ZM45.6724 38.2475H55.7977C56.5002 38.2048 57.2015 38.3503 57.8295 38.6693C58.033 38.8105 58.1958 39.0029 58.3016 39.2274C58.4075 39.4519 58.4525 39.7005 58.4324 39.9481V41.0087C58.4352 41.2054 58.3906 41.3999 58.3026 41.5756C58.2145 41.7513 58.0855 41.9031 57.9266 42.018C57.4717 42.3183 56.9411 42.482 56.397 42.4898C56.9704 42.5149 57.5249 42.7036 57.9958 43.0335C58.1702 43.1634 58.3099 43.3347 58.4024 43.5321C58.4949 43.7295 58.5373 43.9469 58.5259 44.1647V45.2838C58.5299 45.5593 58.4496 45.8295 58.2957 46.0576C58.1419 46.2856 57.922 46.4607 57.6658 46.5589C56.8407 46.8914 55.9522 47.0347 55.065 46.9783H45.6724V38.2475ZM48.369 39.6762V41.7462H54.6283C54.965 41.7634 55.302 41.7214 55.6242 41.6218C55.7112 41.574 55.7827 41.5023 55.8307 41.4151C55.8786 41.3278 55.9008 41.2288 55.8948 41.1294V40.2918C55.8959 40.1932 55.8716 40.0961 55.8242 40.0097C55.7767 39.9234 55.7079 39.8509 55.6242 39.7993C55.301 39.7046 54.9647 39.663 54.6283 39.6762H48.369ZM48.369 43.2054V45.4252H54.6283C54.9916 45.45 55.3558 45.3916 55.6934 45.2546C55.7854 45.1813 55.8583 45.0867 55.9059 44.9788C55.9534 44.8709 55.9741 44.753 55.9663 44.6353V43.9709C55.9728 43.8535 55.9515 43.7363 55.904 43.6289C55.8566 43.5214 55.7844 43.4268 55.6934 43.3529C55.3535 43.2258 54.9898 43.1754 54.6283 43.2054H48.369Z" fill="#007DB6"/>
</svg>
