<svg width="136" height="136" viewBox="0 0 136 136" fill="none" xmlns="http://www.w3.org/2000/svg">
<circle opacity="0.2" cx="68" cy="68" r="68" fill="url(#paint0_linear_31_739)"/>
<path d="M104 28H44C47.4 28 50 30.6 50 34V114C50 118.4 53.6 122 58 122H110V34C110 30.8 107.2 28 104 28Z" fill="white"/>
<path d="M80 14H20C23.4 14 26 16.6 26 20V96C26 100.4 29.6 104 34 104H86V20C86 16.8 83.2 14 80 14Z" fill="white"/>
<path d="M32 104H46" stroke="#007DB6" stroke-width="2.5" stroke-miterlimit="10"/>
<path d="M44 28H104C107.4 28 110 30.6 110 34V112" fill="white"/>
<path d="M44 28H104C107.4 28 110 30.6 110 34V112" stroke="#007DB6" stroke-width="2.5" stroke-miterlimit="10"/>
<path d="M20 14H80C83.4 14 86 16.6 86 20V24" fill="white"/>
<path d="M20 14H80C83.4 14 86 16.6 86 20V24" stroke="#007DB6" stroke-width="2.5" stroke-miterlimit="10"/>
<path d="M58 122C53.6 122 50 118.4 50 114V34C50 30.6 47.4 28 44 28C40.6 28 38 30.6 38 34V98C38 101.4 35.4 104 32 104C28.6 104 26 101.4 26 98V20C26 16.6 23.4 14 20 14C16.6 14 14 16.6 14 20V26H22" stroke="#007DB6" stroke-width="2.5" stroke-miterlimit="10"/>
<path d="M66 114V112H122V114C122 118.4 118.4 122 114 122H58C62.4 122 66 118.4 66 114Z" fill="white" stroke="#007DB6" stroke-width="2.5" stroke-miterlimit="10"/>
<path d="M69 66C72.866 66 76 62.866 76 59C76 55.134 72.866 52 69 52C65.134 52 62 55.134 62 59C62 62.866 65.134 66 69 66Z" fill="white" stroke="#007DB6" stroke-width="2.5" stroke-miterlimit="10" stroke-linecap="round"/>
<path d="M91 84C87.2 84 84 80.8 84 77C84 73.2 87.2 70 91 70C94.8 70 98 73.2 98 77C98 81 94.8 84 91 84Z" fill="white" stroke="#007DB6" stroke-width="2.5" stroke-miterlimit="10" stroke-linecap="round"/>
<path d="M66 84L94 52" stroke="#007DB6" stroke-width="2.5" stroke-miterlimit="10" stroke-linecap="round"/>
<defs>
<linearGradient id="paint0_linear_31_739" x1="68" y1="0" x2="68" y2="136" gradientUnits="userSpaceOnUse">
<stop stop-color="#007DB6"/>
<stop offset="1" stop-color="#007DB6" stop-opacity="0"/>
</linearGradient>
</defs>
</svg>
