<svg width="30" height="37" viewBox="0 0 30 37" fill="none" xmlns="http://www.w3.org/2000/svg">
<path d="M25.6066 26.163C23.5375 28.2771 18.8079 33.1093 16.4262 35.5429C15.6418 36.3443 14.3579 36.3439 13.5735 35.5425C11.23 33.1481 6.60498 28.4226 4.3934 26.163C-1.46447 20.1778 -1.46447 10.474 4.3934 4.48885C10.2513 -1.49628 19.7487 -1.49628 25.6066 4.48885C31.4645 10.474 31.4645 20.1778 25.6066 26.163Z" fill="white"/>
<path d="M20.6569 20.6569C19.7202 21.5935 17.7616 23.5521 16.4138 24.8999C15.6327 25.681 14.3677 25.6814 13.5866 24.9003C12.2623 23.576 10.3416 21.6553 9.34315 20.6569C6.21895 17.5327 6.21895 12.4673 9.34315 9.34315C12.4673 6.21895 17.5327 6.21895 20.6569 9.34315C23.781 12.4673 23.781 17.5327 20.6569 20.6569Z" stroke="#001017" stroke-width="1.5" stroke-linecap="round" stroke-linejoin="round"/>
<path d="M18 15C18 16.6569 16.6569 18 15 18C13.3431 18 12 16.6569 12 15C12 13.3431 13.3431 12 15 12C16.6569 12 18 13.3431 18 15Z" stroke="#001017" stroke-width="1.5" stroke-linecap="round" stroke-linejoin="round"/>
</svg>
