<svg width="136" height="136" viewBox="0 0 136 136" fill="none" xmlns="http://www.w3.org/2000/svg">
<circle opacity="0.2" cx="68" cy="68" r="68" fill="url(#paint0_linear_31_655)"/>
<path d="M68.0002 75H54.0002V73.1999L60.2002 67.1999C62.0002 65.5999 63.2002 64.1999 63.8002 63.3999C64.6002 62.5999 65.0002 61.5999 65.4002 60.7999C65.8002 59.9999 65.8002 59.1999 65.8002 58.1999C65.8002 56.9999 65.0002 54.3999 61.4002 53.5999C58.0002 52.7999 54.4002 54.7999 52.2002 57.7999" stroke="#007DB6" stroke-width="2.5" stroke-miterlimit="10"/>
<path d="M86 69H72V66L80.2 53H82V77" stroke="#007DB6" stroke-width="2.5" stroke-miterlimit="10"/>
<path d="M114 67.0002C114 41.6002 93.1998 21.0002 67.7998 21.0002C65.7998 21.0002 63.9998 21.2002 61.9998 21.4002V13.2002L45.7998 27.6002L61.9998 42.0002V33.2002C63.9998 32.8002 65.9998 32.6002 67.7998 32.6002C86.7998 32.6002 102.2 48.0002 102.2 67.0002C102.2 86.0002 86.7998 101.4 67.9998 101.4C48.9998 101.4 33.5998 86.0002 33.5998 67.0002C33.5998 56.8002 37.9998 47.8002 44.9998 41.4002L37.1998 32.6002C27.7998 41.0002 21.7998 53.2002 21.7998 67.0002C21.7998 92.4002 42.3998 113 67.7998 113C93.3998 113 114 92.4002 114 67.0002Z" fill="white" stroke="#007DB6" stroke-width="2.5" stroke-miterlimit="10"/>
<path d="M68 126C35.4 126 9 99.6 9 67" stroke="#007DB6" stroke-width="2.5" stroke-miterlimit="10"/>
<path d="M78.7998 9C106.2 14.2 127 38.2 127 67" stroke="#007DB6" stroke-width="2.5" stroke-miterlimit="10"/>
<path d="M85.9996 83.6001C76.1996 93.4001 60.3996 93.4001 50.5996 83.6001" stroke="#007DB6" stroke-width="2.5" stroke-miterlimit="10"/>
<path d="M124 88.6001C119 101.4 109.8 112.2 98 119Z" fill="white"/>
<path d="M124 88.6001C119 101.4 109.8 112.2 98 119" stroke="#007DB6" stroke-width="2.5" stroke-miterlimit="10"/>
<defs>
<linearGradient id="paint0_linear_31_655" x1="68" y1="0" x2="68" y2="136" gradientUnits="userSpaceOnUse">
<stop stop-color="#007DB6"/>
<stop offset="1" stop-color="#007DB6" stop-opacity="0"/>
</linearGradient>
</defs>
</svg>
